<svg width="161" height="51" viewBox="0 0 161 51" fill="none" xmlns="http://www.w3.org/2000/svg">
<path d="M79.7509 20.0387C78.7443 19.212 77.6476 19.032 76.4609 19.4987" stroke="#834FF6" stroke-width="2"/>
<path d="M80.0591 0C80.6458 0 81.2291 0 81.8091 0C85.2824 0.366667 88.6624 1.12667 91.9491 2.28C93.5024 2.82667 94.3758 3.80667 94.5691 5.22C94.6224 5.62 94.5624 6.81 94.3891 8.79C93.6091 17.47 89.5791 24.6067 82.2991 30.2C81.2258 31.0333 80.1258 31.07 78.9991 30.31C71.2991 25.13 67.0958 17.03 66.3891 6.01C66.2891 4.48333 66.9258 3.38 68.2991 2.7C71.5591 1.08667 75.4791 0.186667 80.0591 0ZM91.2091 3.9C83.5891 0.866667 76.0858 1.07667 68.6991 4.53C68.4191 4.67 68.2391 4.94 68.2291 5.25C67.8891 15.1833 71.7124 23.04 79.6991 28.82C80.1091 29.12 80.6691 29.12 81.0891 28.83C88.5291 23.63 92.5058 16.26 93.0191 6.72C93.0858 5.34667 92.4824 4.40667 91.2091 3.9Z" fill="white"/>
<path d="M76.759 15.1398C76.129 14.8798 75.769 14.2298 75.879 13.5598C76.3857 10.4732 77.8023 8.14984 80.129 6.58984C80.4223 6.38984 80.739 6.29651 81.079 6.30984C82.299 6.36318 82.349 6.77318 81.229 7.53984C80.949 7.72984 80.749 7.98984 80.659 8.27984C80.099 10.1198 79.769 12.0065 79.669 13.9398C79.589 15.4932 78.619 15.8932 76.759 15.1398Z" fill="#E1A3FF" fill-opacity="0.996"/>
<path d="M87.7706 16.7891C86.6373 18.6091 85.9239 18.6991 85.6306 17.0591C85.5806 16.7891 85.7506 16.5291 86.0306 16.4291C86.7706 16.1625 87.2339 15.6825 87.4206 14.9891C87.4906 14.7091 87.3506 14.3991 87.0706 14.2291C85.8439 13.5158 84.5273 13.0991 83.1206 12.9791C82.1206 12.8925 81.4439 12.7425 81.0906 12.5291C80.1173 11.9491 80.1506 11.1558 81.1906 10.1491C81.4206 9.92913 81.7306 9.79913 82.0606 9.80913C83.4406 9.84247 84.6706 10.2425 85.7506 11.0091C86.8506 11.7891 87.6173 12.5191 88.0506 13.1991C88.7106 14.2325 88.6173 15.4291 87.7706 16.7891Z" fill="#FF9DAA"/>
<path d="M79.7494 20.0396C78.7428 19.2129 77.6461 19.0329 76.4594 19.4996C76.1794 19.1196 75.4627 18.4329 74.3094 17.4396C72.0694 15.5063 71.9528 13.4963 73.9594 11.4096C74.1894 11.1696 74.4994 11.0496 74.8094 11.0896C76.1094 11.2363 75.7561 11.9763 73.7494 13.3096C73.2294 13.6496 73.2394 14.4196 73.7594 14.7596C76.0928 16.2596 78.6761 16.8863 81.5094 16.6396C84.4961 16.3729 85.1261 17.2263 83.3994 19.1996C83.2094 19.4096 82.9194 19.5596 82.5694 19.6096L79.7494 20.0396Z" fill="#5460FF"/>
<path d="M79.7509 20.0387C79.9909 21.372 80.7076 21.892 81.9009 21.5987C82.1909 21.5287 82.4509 21.5487 82.5909 21.6487C82.8309 21.8153 82.6709 22.002 82.1109 22.2087C79.4176 23.1953 77.5343 22.292 76.4609 19.4987C77.6476 19.032 78.7443 19.212 79.7509 20.0387Z" fill="#E1A3FF" fill-opacity="0.996"/>
<path d="M0.5 37.6896C0.5 37.023 0.5 36.3563 0.5 35.6896C2.48667 34.5763 3.47333 34.993 3.46 36.9396C3.46 37.2896 3.34 37.6096 3.12 37.8296C2.38 38.583 1.50667 38.5363 0.5 37.6896Z" fill="#FF9DAA"/>
<path d="M92.3002 39.4187C93.8536 39.4187 94.3102 40.1087 93.6702 41.4887C93.5502 41.7287 93.2702 41.8887 92.9402 41.8787C92.1736 41.8587 91.8302 42.2387 91.9102 43.0187C91.9702 43.592 92.0002 43.912 92.0002 43.9787C92.0002 45.392 92.0002 46.8054 92.0002 48.2187C92.0002 48.272 92.0269 48.622 92.0802 49.2687C92.1936 50.582 91.4036 51.0554 89.7102 50.6887C89.2902 50.5987 89.0002 50.2287 89.0002 49.7987L88.9502 42.8087C88.9502 42.5387 88.7702 42.2687 88.4702 42.1087C87.7302 41.7087 87.5202 41.0954 87.8402 40.2687C87.9302 40.0487 88.1702 39.8087 88.5102 39.6087C89.0769 39.2754 89.3569 38.7554 89.3502 38.0487C89.3502 37.6587 89.4202 37.3287 89.5502 37.1187C90.3236 35.8387 91.4936 35.2587 93.0602 35.3787C93.3802 35.3987 93.6502 35.6087 93.7402 35.8987C94.0602 36.9187 93.7436 37.5954 92.7902 37.9287C92.3602 38.0787 92.0502 38.2787 92.0002 38.4387L91.8102 38.9387C91.7302 39.1787 91.9802 39.4187 92.3002 39.4187Z" fill="white"/>
<path d="M27.6901 39.5213C29.8301 40.0146 29.8068 40.9713 27.6201 42.3913C27.3901 42.5413 27.2501 42.8013 27.2501 43.0713C27.2501 44.898 27.2501 46.7413 27.2501 48.6013C27.2501 48.6613 27.2701 48.9246 27.3101 49.3913C27.4034 50.6313 26.6001 51.058 24.9001 50.6713C24.6201 50.6113 24.4201 50.3413 24.4201 50.0413L24.4601 43.0613C24.4601 42.7813 24.3101 42.4913 24.0401 42.2613C23.0534 41.4346 23.0001 40.548 23.8801 39.6013C24.1201 39.3513 24.2701 39.0613 24.3401 38.7713C24.6068 37.5913 25.2034 36.688 26.1301 36.0613C26.7501 35.6413 27.4101 35.4746 28.1101 35.5613C29.5101 35.728 29.2901 36.778 27.4501 38.7113C27.0568 39.1246 27.1368 39.3946 27.6901 39.5213Z" fill="white"/>
<path d="M118.81 48.1718L119.97 48.3718C120.25 48.4118 120.51 48.6618 120.65 49.0218C121.09 50.1418 120.627 50.7618 119.26 50.8818C117.32 51.0418 116.087 50.2285 115.56 48.4418C115.187 47.1552 115.16 45.8618 115.48 44.5618C115.833 43.1685 115.443 42.2118 114.31 41.6918C113.217 41.1852 113.177 40.6852 114.19 40.1918C115.183 39.6985 115.657 38.9018 115.61 37.8018C115.6 37.4718 115.75 37.1918 116 37.0818C116.82 36.7152 117.463 36.8552 117.93 37.5018C118.08 37.7118 118.14 38.0518 118.08 38.4318C117.927 39.4918 118.407 39.8952 119.52 39.6418C119.86 39.5618 120.19 39.6418 120.38 39.8418C121.033 40.5152 120.963 41.1452 120.17 41.7318C119.97 41.8818 119.64 41.9418 119.26 41.9018C118.333 41.7952 117.89 42.2452 117.93 43.2518C117.99 44.7318 118.1 46.2118 118.26 47.6918C118.28 47.9218 118.51 48.1218 118.81 48.1718Z" fill="white"/>
<path d="M11.3708 43.7799L11.3808 49.6999C11.3808 50.0499 11.2508 50.3499 11.0308 50.4799C10.4241 50.8533 9.81745 50.8566 9.21078 50.4899C8.95078 50.3299 8.80078 50.0299 8.80078 49.6899V40.0599C8.80078 39.7899 9.04078 39.5699 9.32078 39.5899C10.0808 39.6366 10.8408 39.6766 11.6008 39.7099C12.1408 39.7299 12.8908 39.6333 13.8508 39.4199C15.6508 39.0266 17.0541 39.4699 18.0608 40.7499C18.6941 41.5566 19.0108 42.8099 19.0108 44.5099C19.0174 46.3166 18.9974 48.1266 18.9508 49.9399C18.9408 50.2599 18.7708 50.5399 18.5008 50.6699C17.7941 51.0166 17.2908 51.0566 16.9908 50.7899C16.0908 49.9899 15.7341 48.9966 15.9208 47.8099C16.5941 43.6033 15.7508 41.5899 13.3908 41.7699C12.0441 41.8699 11.3708 42.5399 11.3708 43.7799Z" fill="white"/>
<path d="M0.5 50.4402C0.5 46.9402 0.5 43.4402 0.5 39.9402C1.36667 39.3535 2.21 39.2968 3.03 39.7702C3.29 39.9202 3.45 40.2302 3.45 40.5602V49.9302C3.45 50.2502 3.26 50.5402 2.98 50.6402C2.15333 50.9402 1.32667 50.8735 0.5 50.4402Z" fill="white"/>
<path d="M41.5408 40.0018C42.3708 40.2318 42.9408 40.9918 42.9308 41.8518C42.8908 45.3718 41.5208 48.2085 38.8208 50.3618C38.1208 50.9118 37.1308 50.9018 36.4508 50.3218C33.9641 48.2152 32.6408 45.3518 32.4808 41.7318C32.4408 40.9718 32.9408 40.2818 33.6708 40.0818C36.3908 39.3285 39.0141 39.3018 41.5408 40.0018ZM38.7208 46.7918C41.5541 42.8118 40.5274 41.2352 35.6408 42.0618C35.1508 42.1418 34.8408 42.6018 35.0008 43.0018L36.4808 46.7218C37.0274 48.0952 37.7741 48.1185 38.7208 46.7918Z" fill="white"/>
<path d="M52.6903 47.0602C51.7569 46.5869 50.7969 46.1869 49.8103 45.8602C48.4903 45.4336 47.6136 44.9469 47.1803 44.4002C46.4003 43.4202 46.3536 42.3802 47.0403 41.2802C47.5136 40.5202 48.2536 39.9702 49.2603 39.6302C51.8736 38.7569 53.8003 39.5602 55.0403 42.0402C55.1803 42.3202 55.1003 42.6602 54.8603 42.8202C54.0803 43.3269 53.1903 43.1569 52.1903 42.3102C50.7836 41.1236 49.8636 41.2536 49.4303 42.7002C49.3503 42.9802 49.4903 43.2802 49.7703 43.3902L53.8403 45.0202C54.9536 45.4602 55.5069 46.2636 55.5003 47.4302C55.4869 49.3902 54.5936 50.4936 52.8203 50.7402C51.5669 50.9069 50.5269 50.8802 49.7003 50.6602C48.7536 50.4069 47.8336 49.7902 46.9403 48.8102C45.8003 47.5769 46.2836 47.0702 48.3903 47.2902C48.7303 47.3302 49.0503 47.4702 49.3003 47.6902C50.3003 48.5702 51.3869 48.7769 52.5603 48.3102C53.5269 47.9302 53.5703 47.5136 52.6903 47.0602Z" fill="white"/>
<path d="M65.1894 50.9994C64.6027 50.9994 64.0194 50.9994 63.4394 50.9994C59.9194 49.746 58.5961 47.226 59.4694 43.4394C59.7761 42.106 60.4394 41.106 61.4594 40.4394C62.2927 39.886 63.3727 39.616 64.6994 39.6294C68.0727 39.6494 69.7594 41.5194 69.7594 45.2394C69.7594 45.5294 69.5394 45.7794 69.2494 45.8294C67.4894 46.096 65.7194 46.1527 63.9394 45.9994C62.0194 45.8327 61.6927 46.5527 62.9594 48.1594C63.4894 48.8394 64.4694 48.9694 65.1694 48.4494C66.0294 47.8094 66.9994 47.406 68.0794 47.2394C69.2594 47.0527 69.5661 47.486 68.9994 48.5394C68.2661 49.886 66.9961 50.706 65.1894 50.9994ZM66.0594 42.4394C64.5394 41.046 63.4361 40.9827 62.7494 42.2494C61.9094 43.7894 62.3294 44.4894 64.0094 44.3494C64.5961 44.3027 65.0894 44.2727 65.4894 44.2594C67.1427 44.206 67.3327 43.5994 66.0594 42.4394Z" fill="white"/>
<path d="M79.6903 51.0016C79.1036 51.0016 78.5203 51.0016 77.9403 51.0016C75.0869 50.0616 73.6069 48.315 73.5003 45.7616C73.4136 43.7416 74.0236 42.0883 75.3303 40.8016C76.8436 39.315 78.8803 39.0683 81.4403 40.0616C82.6669 40.5416 83.4136 41.4383 83.6803 42.7516C83.7403 43.0416 83.5603 43.3316 83.2703 43.4116C82.0436 43.7383 81.0303 43.4216 80.2303 42.4616C80.0003 42.1816 79.7103 42.0116 79.4303 41.9716C77.6303 41.745 76.6336 42.6683 76.4403 44.7416C76.2003 47.3883 77.2236 48.5816 79.5103 48.3216C79.7803 48.2916 80.0703 48.1416 80.3303 47.8816C81.0236 47.175 81.8836 46.8183 82.9103 46.8116C83.9636 46.805 84.2269 47.2583 83.7003 48.1716C82.8003 49.7183 81.4636 50.6616 79.6903 51.0016Z" fill="white"/>
<path d="M105.46 50.2406C100.907 51.8139 98.6971 50.0673 98.8304 45.0006C98.8637 43.5939 98.7971 42.1973 98.6304 40.8106C98.5904 40.4606 98.6804 40.1406 98.8804 39.9306C99.5071 39.2839 100.244 39.2139 101.09 39.7206C101.29 39.8406 101.44 40.1306 101.46 40.5006L101.95 47.2006C101.97 47.4906 102.17 47.7806 102.49 47.9506C103.617 48.5773 104.577 48.5639 105.37 47.9106C105.924 47.4639 106.207 46.7139 106.22 45.6606C106.234 44.2806 106.187 42.8973 106.08 41.5106C105.94 39.8373 106.797 39.1773 108.65 39.5306C109 39.5906 109.25 39.8906 109.25 40.2406L109.2 49.9406C109.2 50.2606 109.01 50.5306 108.74 50.6206C107.914 50.8939 107.12 50.8039 106.36 50.3506C106.07 50.1806 105.74 50.1406 105.46 50.2406Z" fill="white"/>
<path d="M129.521 48.1191C130.474 48.4391 131.387 48.3791 132.261 47.9391C132.531 47.7991 132.731 47.5291 132.811 47.2091C133.191 45.6357 133.337 43.6491 133.251 41.2491C133.177 39.2891 133.934 38.7991 135.521 39.7791C135.791 39.9491 135.951 40.2391 135.951 40.5591L136.001 49.5991C136.001 50.5491 134.971 51.1491 134.131 50.6791C133.437 50.2991 132.714 50.1957 131.961 50.3691C130.767 50.6557 130.104 50.7991 129.971 50.7991C126.951 50.7657 125.454 49.0824 125.481 45.7491C125.494 44.1691 125.501 42.3857 125.501 40.3991C125.501 40.0691 125.701 39.7691 126.011 39.6591C127.891 38.9391 128.664 39.6391 128.331 41.7591C128.024 43.7457 128.207 45.6524 128.881 47.4791C128.991 47.7891 129.231 48.0291 129.521 48.1191Z" fill="white"/>
<path d="M143.6 40.1191C143.84 40.4791 144.34 40.5591 144.67 40.2791C145.45 39.6191 146.103 39.4125 146.63 39.6591C147.103 39.8858 147.34 40.3691 147.34 41.1091C147.346 42.1758 146.81 42.6558 145.73 42.5491C144.41 42.4158 143.75 43.0125 143.75 44.3391C143.75 46.1125 143.82 47.6591 143.96 48.9791C144.126 50.5258 143.283 51.0925 141.43 50.6791C141.14 50.6091 140.93 50.3491 140.93 50.0491L141.06 40.5691C141.06 40.2291 141.2 39.9191 141.44 39.7491C142.3 39.1158 143.02 39.2391 143.6 40.1191Z" fill="white"/>
<path d="M160.499 44.0584C160.499 44.5584 160.499 45.0584 160.499 45.5584C158.233 46.1784 156.316 46.3251 154.749 45.9984C152.769 45.5851 152.123 46.1484 152.809 47.6884C153.569 49.3684 154.696 49.5351 156.189 48.1884C156.989 47.4618 158.076 47.1618 159.449 47.2884C160.123 47.3551 160.259 47.6584 159.859 48.1984C158.746 49.7184 157.356 50.6518 155.689 50.9984C155.023 50.9984 154.356 50.9984 153.689 50.9984C150.036 49.4384 148.806 46.6851 149.999 42.7384C150.519 41.0251 151.663 40.0084 153.429 39.6884C157.163 39.0018 159.519 40.4584 160.499 44.0584ZM157.019 42.8784C155.013 41.6251 153.559 41.6684 152.659 43.0084C152.349 43.4784 152.619 44.1084 153.179 44.1984C154.786 44.4518 156.046 44.3584 156.959 43.9184C157.606 43.6051 157.626 43.2584 157.019 42.8784Z" fill="white"/>
</svg>
